<?xml version="1.0"?>
<svg version="1.1" xmlns="http://www.w3.org/2000/svg" width="100" height="100" style=""><path fill="#2f5875" d="M18.96,63.2l0-1.87l1.65-0.66l0-2.838l-4.026-7.568l-1.43-0.594l0-1.87l6.226-0.11l0,1.98l-1.122,0.462l2.2,4.73l2.332-4.708l-1.21-0.484l0-1.87l5.94-0.11l0,1.98l-1.518,0.594l-3.982,7.546l0,2.86l1.65,0.66l0,1.87l-6.71,0z M47.54922,61.33l0,1.87l-6.996,0l0-1.87l1.65-0.594l-0.528-1.606l-4.884,0l-0.55,1.584l1.716,0.616l0,1.87l-6.644,0l0-1.87l1.606-0.616l4.84-12.958l3.52-0.066l4.73,13.024z M40.94922,56.776l-1.65-5.214l-1.738,5.214l3.388,0z M49.29844,49.67l0-1.87l6.534-0.11l0,1.98l-1.606,0.66l1.892,7.92l3.08-10.384l2.97-0.176l2.948,10.538l2.112-7.898l-1.65-0.66l0-1.87l6.27-0.11l0,1.98l-1.584,0.66l-3.762,12.87l-3.124,0l-2.882-10.45l-0.528,2.09l-2.53,8.36l-3.036,0l-3.564-12.892z M74.25766,63.2l0-1.87l1.65-0.66l0-10.34l-1.65-0.66l0-1.87l5.06-0.11l2.09,0c3.366,0,5.346,1.76,5.346,4.62c0,3.696-2.266,5.5-6.27,5.5l-1.166,0l0,2.86l1.65,0.66l0,1.87l-6.71,0z M79.31766,55.236l1.166,0c1.826,0,2.86-0.858,2.86-2.486c0-1.43-0.77-2.42-2.266-2.42l-1.76,0l0,4.906z"/><path fill="#642a73" d=""/></svg>
